<svg width="98" height="96" viewBox="0 0 98 96" fill="none" xmlns="http://www.w3.org/2000/svg">
<g clip-path="url(#clip0_7_3)">
<path d="M48.9 0C21.8 0 0 22 0 49.2C0 71 14 89.4 33.4 95.9C35.8 96.4 36.7 94.8 36.7 93.5C36.7 92.4 36.6 88.4 36.6 84.4C23 87.3 20.2 78.5 20.2 78.5C18 72.8 14.8 71.3 14.8 71.3C10.4 68.3 15.1 68.3 15.1 68.3C20 68.6 22.6 73.4 22.6 73.4C27 80.9 34 78.8 36.8 77.5C37.2 74.3 38.5 72.1 39.9 70.9C29.1 69.8 17.7 65.5 17.7 46.6C17.7 41.2 19.6 36.8 22.7 33.4C22.2 32.2 20.5 27.1 23.2 20.4C23.2 20.4 27.3 19.1 36.6 25.5C40.5 24.4 44.7 23.9 48.8 23.9C52.9 23.9 57.1 24.5 61 25.5C70.3 19.1 74.4 20.4 74.4 20.4C77.1 27.2 75.4 32.2 74.9 33.4C78.1 36.8 79.9 41.2 79.9 46.6C79.9 65.5 68.5 69.7 57.6 70.9C59.4 72.4 60.9 75.4 60.9 80C60.9 86.6 60.8 91.9 60.8 93.5C60.8 94.8 61.7 96.4 64.1 95.9C83.6 89.4 97.6 71 97.6 49.2C97.7 22 75.8 0 48.9 0Z" fill="black"/>
</g>
<defs>
<clipPath id="clip0_7_3">
<rect width="97.6" height="96" fill="white"/>
</clipPath>
</defs>
</svg>
